# xmcd
#
# Track frame offsets:
#  150
#  19237
#  36062
#  53362
#  72857
#  87205
#  106190
#  125832
#  143690
#  159835
#  177045
#
# Disc length: 2457 seconds
#
# Revision: 1
# Processed by: cddbd v1.5.1PL2 Copyright (c) Steve Scherf et al.
# Submitted via: Collectorz.com_Music_Collector 6.9
#
DISCID=8109970b
DTITLE=Dominic Grant and Julie Forsyth - The Grant and Forsyth Story
DYEAR=1988
DGENRE=Country
TTITLE0=The Sun Ain't Gonna Shine Anymore/Be My Baby
TTITLE1=One More Minute
TTITLE2=You Make Me So Happy
TTITLE3=You've Lost That Lovin' Feeling
TTITLE4=Go
TTITLE5=Caught In The Rain
TTITLE6=Anything For You
TTITLE7=You'r My World
TTITLE8=You Don't Have To Say You Love Me
TTITLE9=Angel Of The Morning
TTITLE10=A Ditty Two
EXTD=
EXTT0=
EXTT1=
EXTT2=
EXTT3=
EXTT4=
EXTT5=
EXTT6=
EXTT7=
EXTT8=
EXTT9=
EXTT10=
PLAYORDER=
